<svg width="1440" height="277" viewBox="0 0 1440 277" fill="none" xmlns="http://www.w3.org/2000/svg">
<g opacity="0.4">
<path d="M1440 20.7648C1437.88 21.532 1435.76 22.3016 1433.65 23.0694L1433.33 23.1863L1433.04 23.2921C1396.34 36.5848 1358.34 50.3477 1334.12 41.7519C1324.33 37.748 1315.17 33.4592 1306.29 29.3012L1305.35 28.8631L1305.31 28.8436C1281.35 17.531 1258.71 6.84642 1227.7 3.98644C1187.95 -1.8283 1159.01 11.005 1131.06 23.3957L1130.68 23.5672C1120.39 28.1478 1109.73 32.8809 1098.49 36.7616C1078.32 43.6854 1053.4 43.5579 1033.61 36.5066C1029.02 34.5526 1024.34 32.5209 1019.56 30.4115L1019.42 30.3498C970.8 9.10711 910.372 -17.2955 855.858 17.6813C855.568 17.8546 855.314 18.0528 855.098 18.2695C854.93 18.3445 854.766 18.4293 854.607 18.5243C823.051 37.2046 775.679 56.499 729.389 41.8217C718.297 37.8931 708.047 32.6254 697.176 27.0383L697.175 27.0377L696.615 26.7502C677.608 16.923 657.835 6.78308 633.318 4.18648C608.02 2.28692 575.59 14.0793 544.277 25.4657L543.956 25.5825L543.663 25.6885C506.962 38.9811 468.963 52.7439 444.741 44.1481C434.953 40.1442 425.793 35.8552 416.913 31.6972L415.978 31.2594L415.936 31.2398C391.97 19.9272 369.335 9.24266 338.32 6.38268C298.578 0.567964 269.634 13.4012 241.689 25.7919L241.303 25.9634C231.018 30.544 220.35 35.2771 209.112 39.1578C188.941 46.0817 164.025 45.9541 144.232 38.9029C139.645 36.9489 134.962 34.9171 130.184 32.8077L130.043 32.746C91.2176 15.7823 44.8613 -4.47194 0 5.8687V13.1199C42.0922 2.22438 86.1631 21.4753 125.98 38.868L126.023 38.8869C129.266 40.3186 132.51 41.7147 135.783 43.1236C137.332 43.7906 138.888 44.4605 140.454 45.1384C162.637 53.0513 190.237 53.1927 212.521 45.5074C223.738 41.7209 234.17 37.0811 244.231 32.6065L245.576 32.0085L245.68 31.9627C273.61 19.6129 300.118 7.89233 337.221 13.2497C366.707 16.025 388.58 26.3221 411.786 37.2463L412.594 37.6274C421.619 41.8855 430.935 46.2809 441.249 50.4624C447.656 52.6573 454.646 53.697 462.025 53.7348C487.325 53.8643 517.873 42.7465 547.557 31.8558L548.531 31.5025C578.678 20.5709 609.667 9.3337 632.411 11.0545C654.917 13.4091 673.83 23.1586 692.073 32.5958L692.699 32.9172C703.299 38.3563 714.275 43.9886 726.089 48.2141C765.78 60.7727 811.931 52.4375 859.746 24.1105C860.071 23.9166 860.352 23.694 860.588 23.4502C860.797 23.3541 860.999 23.2421 861.19 23.114C911.314 -8.97543 966.533 15.145 1015.36 36.4718L1015.4 36.4906C1018.64 37.922 1021.88 39.3179 1025.16 40.7265L1025.16 40.7299L1025.43 40.8464C1026.89 41.4741 1028.36 42.1046 1029.83 42.7422C1052.01 50.6551 1079.61 50.7964 1101.9 43.1112C1113.11 39.3249 1123.54 34.6855 1133.61 30.2111L1133.61 30.2106L1134.95 29.6123L1135.06 29.5664C1162.99 17.2166 1189.49 5.49609 1226.6 10.8535C1256.08 13.6287 1277.96 23.9257 1301.16 34.8499L1301.97 35.2304C1310.99 39.4887 1320.31 43.8843 1330.63 48.0661C1337.03 50.2611 1344.02 51.3008 1351.4 51.3385C1376.7 51.4681 1407.25 40.3502 1436.93 29.4596L1437.91 29.1062C1438.6 28.8534 1439.3 28.6004 1440 28.3473V20.7648Z" fill="url(#paint0_linear_1_204)"/>
<path d="M1440 76.3861C1437.66 77.2323 1435.32 78.0819 1432.99 78.929L1432.68 79.044C1395.98 92.3366 1357.98 106.099 1333.75 97.5036C1323.97 93.4994 1314.81 89.2101 1305.92 85.0518L1304.99 84.6149L1304.95 84.5951C1280.98 73.2826 1258.35 62.5981 1227.33 59.7382C1187.59 53.9235 1158.65 66.7567 1130.7 79.1474L1130.32 79.3189C1120.03 83.8995 1109.36 88.6326 1098.13 92.5134C1077.95 99.4372 1053.04 99.3096 1033.25 92.2584C1028.66 90.3044 1023.98 88.2726 1019.2 86.1632L1019.06 86.1015C970.438 64.8589 910.01 38.4562 855.496 73.433C855.206 73.6064 854.952 73.8046 854.736 74.0213C854.568 74.0962 854.404 74.1811 854.245 74.276C822.689 92.9564 775.317 112.251 729.027 97.5734C717.934 93.6446 707.684 88.3764 696.812 82.789L696.253 82.502C677.246 72.6748 657.473 62.5348 632.956 59.9382C607.674 58.0332 575.023 69.9057 543.618 81.3253L543.594 81.3342L543.301 81.4402C506.6 94.7329 468.601 108.496 444.379 99.8999C434.59 95.8958 425.43 91.6067 416.55 87.4485L415.616 87.0111L415.574 86.9914C391.608 75.6789 368.972 64.9944 337.958 62.1344C298.216 56.3197 269.273 69.1529 241.328 81.5436L240.941 81.7152C230.656 86.2958 219.988 91.0289 208.75 94.9096C188.579 101.833 163.663 101.706 143.87 94.6546C139.283 92.7006 134.6 90.6689 129.822 88.5595L129.681 88.4978C90.9601 71.5797 44.7486 51.3887 0 61.5377V68.7787C41.9829 58.0865 85.9153 77.2769 125.618 94.6198L125.661 94.6386C128.901 96.0686 132.14 97.4631 135.409 98.8704L135.415 98.873L135.419 98.8749C136.969 99.542 138.526 100.212 140.092 100.89C162.275 108.803 189.875 108.944 212.159 101.259C223.376 97.4726 233.808 92.8328 243.87 88.3581L245.214 87.7603C273.183 75.3165 299.71 63.6375 336.859 69.0015C366.345 71.7768 388.219 82.0739 411.424 92.9981L412.233 93.3796C421.258 97.6375 430.574 102.033 440.887 106.214C447.294 108.409 454.284 109.449 461.663 109.487C486.785 109.615 517.082 98.5778 546.569 87.8356L547.535 87.484C577.786 76.4803 609.146 65.0734 632.049 66.8063C654.555 69.1609 673.468 78.9104 691.711 88.3475L692.337 88.6686L692.338 88.6691L692.339 88.6698C702.938 94.1087 713.914 99.7406 725.727 103.966C765.418 116.524 811.569 108.189 859.384 79.8623C859.709 79.6684 859.99 79.4457 860.226 79.202C860.435 79.1058 860.637 78.9938 860.828 78.8658C910.952 46.7763 966.171 70.8968 1014.99 92.2236L1015.04 92.2424C1018.28 93.6735 1021.52 95.0691 1024.79 96.4775L1024.8 96.4808L1024.89 96.5184C1026.41 97.1724 1027.93 97.8293 1029.47 98.4939C1051.65 106.407 1079.25 106.548 1101.53 98.8629C1112.75 95.0761 1123.19 90.436 1133.25 85.961L1134.59 85.3641C1162.56 72.9202 1189.09 61.2412 1226.23 66.6052C1255.72 69.3806 1277.59 79.6777 1300.8 90.602L1300.83 90.6168L1301.61 90.9843L1301.61 90.9858L1301.62 90.9881C1310.64 95.2446 1319.95 99.6381 1330.26 103.818C1336.67 106.013 1343.66 107.053 1351.04 107.09C1376.16 107.219 1406.46 96.1815 1435.94 85.4393L1436.91 85.0877C1437.94 84.7135 1438.97 84.3388 1440 83.9642V76.3861Z" fill="url(#paint1_linear_1_204)"/>
<path d="M1440 131.93C1437.54 132.819 1435.08 133.713 1432.63 134.604L1432.32 134.718C1395.61 148.011 1357.61 161.774 1333.39 153.178C1323.61 149.175 1314.45 144.886 1305.57 140.729L1305.56 140.727L1304.63 140.289L1304.59 140.27C1280.62 128.957 1257.99 118.273 1226.97 115.413C1187.1 109.656 1158.1 122.515 1130.07 134.942L1129.95 134.993C1119.67 139.574 1109 144.307 1097.76 148.188C1077.59 155.112 1052.68 154.984 1032.88 147.933C1028.3 145.979 1023.61 143.947 1018.84 141.838L1018.7 141.776C970.077 120.533 909.648 94.1308 855.135 129.108C854.844 129.281 854.591 129.479 854.375 129.696C854.207 129.771 854.042 129.856 853.883 129.951C822.328 148.631 774.955 167.925 728.666 153.248C717.573 149.319 707.322 144.051 696.451 138.464L695.892 138.176C676.884 128.349 657.112 118.209 632.595 115.613C607.313 113.708 574.662 125.58 543.257 137L543.232 137.009L542.94 137.115C506.238 150.407 468.239 164.17 444.017 155.574C434.229 151.57 425.069 147.281 416.188 143.123L415.254 142.686L415.212 142.666C391.246 131.353 368.611 120.669 337.597 117.809C297.725 112.053 268.724 124.911 240.694 137.339L240.579 137.39C230.295 141.97 219.626 146.703 208.388 150.584C188.218 157.508 163.301 157.38 143.509 150.329C138.921 148.375 134.239 146.343 129.46 144.234L129.319 144.172C90.7028 127.3 44.6359 107.172 0 117.131V124.362C41.8735 113.871 85.6677 133.001 125.257 150.294L125.3 150.313C128.54 151.743 131.779 153.138 135.049 154.545L135.055 154.548L135.056 154.548L135.058 154.549C136.608 155.216 138.164 155.887 139.731 156.565C161.913 164.478 189.513 164.619 211.797 156.934C223.015 153.147 233.447 148.507 243.508 144.032L244.852 143.435L245.119 143.317C272.989 130.994 299.371 119.329 336.498 124.676C365.984 127.451 387.857 137.748 411.062 148.673L411.094 148.688L411.871 149.054C420.896 153.312 430.212 157.707 440.526 161.889C446.933 164.084 453.922 165.123 461.301 165.161C486.601 165.291 517.149 154.173 546.833 143.282L547.173 143.159C577.424 132.155 608.784 120.748 631.688 122.481C654.194 124.835 673.106 134.585 691.349 144.022L691.975 144.343C702.575 149.782 713.551 155.415 725.366 159.64C765.056 172.199 811.208 163.864 859.022 135.537C859.347 135.343 859.628 135.12 859.865 134.877C860.074 134.78 860.275 134.668 860.466 134.54C910.591 102.451 965.809 126.571 1014.63 147.898L1014.68 147.917C1017.92 149.349 1021.16 150.746 1024.44 152.155L1024.46 152.166C1026 152.829 1027.55 153.495 1029.11 154.168C1051.29 162.081 1078.89 162.223 1101.17 154.537C1112.39 150.751 1122.82 146.111 1132.88 141.637L1134.23 141.039L1134.49 140.921C1162.36 128.597 1188.75 116.932 1225.87 122.28C1255.36 125.055 1277.23 135.352 1300.44 146.277L1301.24 146.657L1301.25 146.657C1310.27 150.916 1319.59 155.311 1329.9 159.492C1336.31 161.687 1343.3 162.727 1350.68 162.765C1375.98 162.894 1406.52 151.776 1436.21 140.886L1436.55 140.762C1437.7 140.344 1438.85 139.926 1440 139.507V131.93Z" fill="url(#paint2_linear_1_204)"/>
<path d="M1440 187.473C1437.52 188.37 1435.04 189.271 1432.57 190.17L1432.25 190.287L1431.95 190.393C1395.25 203.686 1357.25 217.448 1333.03 208.853C1323.24 204.849 1314.09 200.561 1305.21 196.403L1305.2 196.401L1304.27 195.964L1304.23 195.944C1280.26 184.632 1257.63 173.947 1226.61 171.087C1186.74 165.331 1157.74 178.189 1129.71 190.617L1129.59 190.668C1119.31 195.249 1108.64 199.982 1097.4 203.862C1077.23 210.786 1052.32 210.659 1032.52 203.607C1027.94 201.653 1023.25 199.622 1018.47 197.512L1018.33 197.451C969.715 176.208 909.287 149.805 854.773 184.782C854.483 184.955 854.229 185.154 854.013 185.37C853.845 185.445 853.681 185.53 853.522 185.625C821.966 204.305 774.594 223.6 728.304 208.922C717.211 204.994 706.96 199.725 696.088 194.138L695.53 193.851C676.523 184.024 656.75 173.884 632.233 171.287C606.935 169.388 574.505 181.18 543.192 192.567L542.871 192.683L542.578 192.789C505.877 206.082 467.878 219.845 443.656 211.249C433.867 207.245 424.707 202.956 415.827 198.798L414.893 198.36L414.851 198.341C390.885 187.028 368.25 176.343 337.235 173.483C297.363 167.727 268.362 180.586 240.333 193.013L240.218 193.064C229.933 197.645 219.265 202.378 208.027 206.259C187.856 213.182 162.94 213.055 143.147 206.004C138.56 204.05 133.877 202.018 129.099 199.909L128.958 199.847C90.4456 183.02 44.5231 162.955 0 172.725V179.947C41.764 169.656 85.4201 188.725 124.895 205.969L124.938 205.988C128.178 207.418 131.418 208.813 134.687 210.22L134.693 210.223L134.694 210.223L134.696 210.224C136.246 210.891 137.803 211.561 139.369 212.239C161.552 220.152 189.152 220.293 211.436 212.608C222.652 208.822 233.084 204.182 243.145 199.708L243.146 199.707L244.491 199.109L244.758 198.991C272.628 186.668 299.009 175.003 336.136 180.351C365.622 183.126 387.496 193.423 410.701 204.347L410.733 204.362L411.509 204.728C420.534 208.986 429.851 213.382 440.164 217.563C446.571 219.758 453.561 220.798 460.94 220.836C486.24 220.965 516.788 209.847 546.472 198.957L546.769 198.849C577.128 187.841 608.411 176.499 631.326 178.155C653.832 180.51 672.745 190.259 690.988 199.697L691.614 200.018L691.615 200.018L691.617 200.019C702.216 205.458 713.191 211.09 725.004 215.315C764.695 227.874 810.846 219.538 858.661 191.211C858.986 191.017 859.267 190.795 859.503 190.551C859.712 190.455 859.914 190.343 860.105 190.215C910.229 158.125 965.448 182.246 1014.27 203.573L1014.31 203.591C1017.56 205.023 1020.8 206.42 1024.08 207.829L1024.08 207.832L1024.14 207.855C1025.66 208.513 1027.2 209.174 1028.74 209.843C1050.93 217.756 1078.53 217.897 1100.81 210.212C1112.03 206.426 1122.46 201.786 1132.52 197.312L1132.52 197.311L1133.87 196.713L1134.13 196.595C1162 184.272 1188.39 172.607 1225.51 177.954C1255 180.73 1276.87 191.027 1300.08 201.951L1300.11 201.966L1300.88 202.331L1300.88 202.332C1309.91 206.59 1319.23 210.985 1329.54 215.167C1335.95 217.362 1342.94 218.402 1350.32 218.439C1375.62 218.569 1406.16 207.451 1435.85 196.56L1436.14 196.453C1437.43 195.987 1438.71 195.521 1440 195.055V187.473Z" fill="url(#paint3_linear_1_204)"/>
<path d="M1440 243.017C1437.4 243.957 1434.8 244.902 1432.21 245.845L1431.89 245.962L1431.59 246.068C1394.89 259.36 1356.89 273.123 1332.67 264.527C1322.88 260.523 1313.72 256.235 1304.84 252.077L1304.84 252.076L1303.91 251.638L1303.87 251.619C1279.9 240.306 1257.26 229.622 1226.25 226.762C1186.51 220.947 1157.56 233.78 1129.62 246.171L1129.23 246.342C1118.95 250.923 1108.28 255.656 1097.04 259.537C1076.87 266.461 1051.95 266.333 1032.16 259.282C1027.57 257.328 1022.89 255.296 1018.11 253.187L1017.97 253.125C969.354 231.882 908.925 205.48 854.412 240.457C854.121 240.63 853.868 240.828 853.652 241.045C853.484 241.12 853.319 241.205 853.16 241.3C821.605 259.98 774.232 279.274 727.943 264.597C716.852 260.669 706.603 255.402 695.732 249.815L695.731 249.815L695.73 249.814L695.728 249.813L695.169 249.526C676.161 239.698 656.389 229.558 631.872 226.962C606.574 225.062 574.144 236.855 542.831 248.241L542.509 248.358L542.217 248.464C505.516 261.756 467.516 275.519 443.294 266.923C433.506 262.919 424.346 258.63 415.466 254.472L414.531 254.035L414.49 254.015C390.524 242.703 367.888 232.018 336.874 229.158C297.131 223.343 268.188 236.177 240.243 248.567L239.856 248.739C229.572 253.319 218.903 258.052 207.665 261.933C187.495 268.857 162.578 268.729 142.786 261.678C138.198 259.724 133.516 257.692 128.737 255.583L128.596 255.521C90.1883 238.74 44.4101 218.738 0 228.321V235.535C41.6934 225.434 85.2789 244.463 124.577 261.662C127.805 263.087 131.033 264.477 134.29 265.879L134.305 265.886L134.328 265.895L134.331 265.897L134.336 265.899C135.886 266.566 137.442 267.236 139.008 267.914C161.19 275.827 188.79 275.968 211.074 268.283C222.292 264.496 232.724 259.856 242.786 255.381L244.13 254.784C272.099 242.34 298.625 230.661 335.775 236.025C365.261 238.8 387.134 249.097 410.339 260.022L410.371 260.037L411.148 260.403C420.173 264.661 429.489 269.056 439.803 273.238C446.21 275.433 453.199 276.472 460.578 276.51C485.878 276.64 516.426 265.522 546.11 254.631L547.085 254.278C577.231 243.346 608.22 232.109 630.965 233.83C653.471 236.184 672.383 245.934 690.627 255.371L691.252 255.692C701.852 261.131 712.828 266.764 724.643 270.989C764.333 283.625 810.581 275.213 858.299 246.886C858.624 246.692 858.905 246.469 859.142 246.226C859.351 246.129 859.552 246.017 859.743 245.889C909.882 213.79 965.215 237.935 1013.95 259.266C1017.19 260.697 1020.44 262.093 1023.71 263.501C1025.26 264.169 1026.82 264.839 1028.38 265.517C1050.57 273.43 1078.17 273.572 1100.45 265.886C1111.67 262.1 1122.1 257.46 1132.16 252.985L1132.16 252.985L1133.51 252.388C1161.47 239.944 1188 228.265 1225.15 233.629C1254.64 236.404 1276.51 246.701 1299.72 257.625L1300.52 258.006C1309.55 262.264 1318.86 266.66 1329.18 270.841C1335.59 273.036 1342.57 274.076 1349.95 274.114C1375.25 274.243 1405.8 263.126 1435.49 252.235L1436.46 251.882C1437.64 251.454 1438.82 251.026 1440 250.599V243.017Z" fill="url(#paint4_linear_1_204)"/>
</g>
<defs>
<linearGradient id="paint0_linear_1_204" x1="1301.47" y1="274.314" x2="1302.91" y2="-7.34052" gradientUnits="userSpaceOnUse">
<stop offset="0.1312" stop-color="#005BA5"/>
<stop offset="0.3495" stop-color="#0071BA"/>
<stop offset="0.7749" stop-color="#0096DE"/>
<stop offset="1" stop-color="#00A4EC"/>
</linearGradient>
<linearGradient id="paint1_linear_1_204" x1="1301.47" y1="274.314" x2="1302.91" y2="-7.34052" gradientUnits="userSpaceOnUse">
<stop offset="0.1312" stop-color="#005BA5"/>
<stop offset="0.3495" stop-color="#0071BA"/>
<stop offset="0.7749" stop-color="#0096DE"/>
<stop offset="1" stop-color="#00A4EC"/>
</linearGradient>
<linearGradient id="paint2_linear_1_204" x1="1301.47" y1="274.314" x2="1302.91" y2="-7.34052" gradientUnits="userSpaceOnUse">
<stop offset="0.1312" stop-color="#005BA5"/>
<stop offset="0.3495" stop-color="#0071BA"/>
<stop offset="0.7749" stop-color="#0096DE"/>
<stop offset="1" stop-color="#00A4EC"/>
</linearGradient>
<linearGradient id="paint3_linear_1_204" x1="1301.47" y1="274.314" x2="1302.91" y2="-7.34052" gradientUnits="userSpaceOnUse">
<stop offset="0.1312" stop-color="#005BA5"/>
<stop offset="0.3495" stop-color="#0071BA"/>
<stop offset="0.7749" stop-color="#0096DE"/>
<stop offset="1" stop-color="#00A4EC"/>
</linearGradient>
<linearGradient id="paint4_linear_1_204" x1="1301.47" y1="274.314" x2="1302.91" y2="-7.34052" gradientUnits="userSpaceOnUse">
<stop offset="0.1312" stop-color="#005BA5"/>
<stop offset="0.3495" stop-color="#0071BA"/>
<stop offset="0.7749" stop-color="#0096DE"/>
<stop offset="1" stop-color="#00A4EC"/>
</linearGradient>
</defs>
</svg>
