<svg width="1440" height="165" viewBox="0 0 1440 165" fill="none" xmlns="http://www.w3.org/2000/svg">
<g opacity="0.4">
<path d="M1440 20.2475C1437.88 21.0147 1435.76 21.7844 1433.65 22.5522L1433.33 22.6689L1433.04 22.7748C1396.34 36.0675 1358.34 49.8304 1334.12 41.2345C1324.33 37.2311 1315.17 32.9426 1306.29 28.785L1305.35 28.3458L1305.31 28.3263C1281.35 17.0137 1258.71 6.32909 1227.7 3.46911C1187.95 -2.34563 1159.01 10.4877 1131.06 22.8784L1130.68 23.0498C1120.39 27.6305 1109.73 32.3635 1098.49 36.2443C1078.32 43.1681 1053.4 43.0405 1033.61 35.9893C1029.02 34.0353 1024.34 32.0036 1019.56 29.8941L1019.42 29.8324C970.8 8.58976 910.372 -17.8128 855.858 17.1639C855.568 17.3373 855.314 17.5355 855.098 17.7522C854.93 17.8271 854.766 17.912 854.607 18.0069C823.051 36.6873 775.679 55.9817 729.389 41.3044C718.297 37.3758 708.047 32.108 697.176 26.5209L697.175 26.5204L696.615 26.2329C677.608 16.4057 657.835 6.26575 633.318 3.66914C608.02 1.76959 575.59 13.562 544.277 24.9483L543.956 25.0652L543.663 25.1712C506.962 38.4638 468.963 52.2266 444.741 43.6308C434.953 39.6271 425.794 35.3384 416.914 31.1806L416.912 31.1796L415.978 30.742L415.936 30.7224C391.97 19.4098 369.334 8.72532 338.32 5.86535C298.578 0.0506306 269.634 12.8839 241.689 25.2746L241.303 25.4461C231.018 30.0267 220.35 34.7598 209.112 38.6405C188.941 45.5644 164.025 45.4368 144.232 38.3855C139.645 36.4315 134.962 34.3998 130.184 32.2904L130.043 32.2287C91.2176 15.265 44.8613 -4.98927 0 5.35137V12.6026C42.0922 1.70705 86.1631 20.9579 125.98 38.3507L126.023 38.3695C129.266 39.8012 132.509 41.1973 135.782 42.6062L135.79 42.6094C137.337 43.2754 138.891 43.9443 140.454 44.6211C162.637 52.534 190.237 52.6753 212.521 44.9901C223.738 41.2036 234.17 36.5639 244.231 32.0892L245.576 31.4912L245.68 31.4454C273.61 19.0956 300.118 7.375 337.221 12.7324C366.707 15.5077 388.58 25.8047 411.786 36.729L412.594 37.1101C421.619 41.3682 430.935 45.7635 441.249 49.945C447.656 52.14 454.646 53.1797 462.025 53.2175C487.325 53.347 517.873 42.2291 547.557 31.3385L548.531 30.9852C578.677 20.0537 609.667 8.81636 632.411 10.5372C654.917 12.8918 673.83 22.6413 692.073 32.0784L692.699 32.3998C703.299 37.839 714.275 43.4713 726.089 47.6968C765.78 60.2554 811.931 51.9202 859.746 23.5932C860.071 23.3993 860.352 23.1766 860.588 22.9329C860.797 22.8367 860.999 22.7248 861.19 22.5967C911.314 -9.49276 966.533 14.6277 1015.36 35.9544L1015.4 35.9733C1018.63 37.4012 1021.87 38.7938 1025.13 40.199L1025.15 40.2087L1025.16 40.2091C1026.71 40.8764 1028.26 41.5466 1029.83 42.2249C1052.01 50.1378 1079.61 50.2791 1101.9 42.5939C1113.11 38.8073 1123.55 34.1674 1133.61 29.6927L1134.95 29.095L1135.06 29.0491C1162.99 16.6993 1189.49 4.97876 1226.6 10.3362C1256.08 13.1115 1277.96 23.4087 1301.16 34.333L1301.97 34.7151L1301.98 34.7166C1311 38.9738 1320.31 43.3682 1330.63 47.5488C1337.03 49.7438 1344.02 50.7834 1351.4 50.8212C1376.7 50.9508 1407.25 39.8329 1436.93 28.9423L1437.91 28.589C1438.6 28.3361 1439.3 28.0831 1440 27.83V20.2475Z" fill="url(#paint0_linear_1_205)"/>
<path d="M1440 75.8688C1437.66 76.7151 1435.32 77.5647 1432.99 78.4118L1432.68 78.5265C1395.98 91.8192 1357.98 105.582 1333.75 96.9863C1323.97 92.9822 1314.81 88.6929 1305.92 84.5346L1304.99 84.0975L1304.95 84.0778C1280.98 72.7653 1258.35 62.0808 1227.33 59.2209C1187.59 53.4061 1158.65 66.2394 1130.7 78.6301L1130.32 78.8016C1120.03 83.3822 1109.36 88.1153 1098.13 91.996C1077.95 98.9199 1053.04 98.7923 1033.25 91.7411C1028.66 89.7871 1023.98 87.7553 1019.2 85.6459L1019.06 85.5842C970.438 64.3415 910.01 37.9389 855.496 72.9157C855.206 73.0891 854.952 73.2872 854.736 73.5039C854.568 73.5789 854.404 73.6638 854.245 73.7587C822.689 92.4391 775.317 111.733 729.027 97.0561C717.935 93.1274 707.685 87.8595 696.813 82.2723L696.812 82.2718L696.253 81.9846C677.246 72.1575 657.473 62.0175 632.956 59.4209C607.674 57.5158 575.023 69.3884 543.618 80.808L543.301 80.9229C506.6 94.2155 468.601 107.978 444.379 99.3825C434.591 95.3786 425.431 91.0897 416.551 86.9316L416.55 86.9311L415.616 86.4938L415.574 86.4742C391.608 75.1616 368.973 64.4771 337.958 61.6171C298.216 55.8024 269.273 68.6356 241.328 81.0263L240.941 81.1978C230.656 85.7785 219.988 90.5115 208.75 94.3923C188.579 101.316 163.663 101.189 143.87 94.1373C139.283 92.1833 134.6 90.1516 129.822 88.0421L129.681 87.9805C90.9601 71.0624 44.7486 50.8714 0 61.0204V68.2614C41.9828 57.5691 85.9153 76.7595 125.618 94.1024L125.661 94.1213C128.904 95.5526 132.146 96.9483 135.418 98.3569L135.421 98.3581C136.97 99.0251 138.526 99.6949 140.092 100.373C162.275 108.286 189.875 108.427 212.159 100.742C223.376 96.9552 233.809 92.3154 243.87 87.8406L245.214 87.243C273.183 74.7991 299.71 63.1201 336.859 68.4842C366.345 71.2595 388.219 81.5565 411.424 92.4808L412.232 92.8621C421.258 97.1201 430.574 101.515 440.887 105.697C447.294 107.892 454.284 108.931 461.663 108.969C486.785 109.098 517.082 98.0605 546.569 87.3183L547.534 86.9667C577.786 75.9631 609.146 64.5561 632.049 66.2889C654.555 68.6436 673.468 78.393 691.711 87.8302L692.337 88.1513C702.937 93.5905 713.913 99.2229 725.727 103.449C765.418 116.007 811.569 107.672 859.384 79.3449C859.709 79.1511 859.99 78.9284 860.226 78.6846C860.435 78.5885 860.637 78.4765 860.828 78.3485C910.952 46.259 966.171 70.3795 1014.99 91.7062L1015.04 91.725C1018.28 93.1562 1021.52 94.5517 1024.79 95.9601C1026.34 96.6277 1027.9 97.2981 1029.47 97.9766C1051.65 105.89 1079.25 106.031 1101.53 98.3456C1112.75 94.5593 1123.18 89.9201 1133.24 85.4457L1133.24 85.4452L1134.59 84.8467C1162.56 72.4029 1189.09 60.7239 1226.23 66.0879C1255.72 68.8632 1277.59 79.1603 1300.8 90.0845L1300.83 90.0995L1301.61 90.466L1301.61 90.4684C1310.64 94.7256 1319.95 99.1199 1330.26 103.301C1336.67 105.496 1343.66 106.535 1351.04 106.573C1376.16 106.702 1406.46 95.6642 1435.94 84.922L1436.91 84.5703C1437.94 84.1961 1438.97 83.8215 1440 83.447V75.8688Z" fill="url(#paint1_linear_1_205)"/>
<path d="M1440 131.413C1437.54 132.302 1435.08 133.196 1432.63 134.086L1432.32 134.201C1395.61 147.494 1357.61 161.257 1333.39 152.661C1323.6 148.657 1314.44 144.367 1305.56 140.209L1304.63 139.772L1304.59 139.752C1280.62 128.44 1257.99 117.755 1226.97 114.895C1187.1 109.139 1158.1 121.997 1130.07 134.425L1129.95 134.476C1119.67 139.057 1109 143.79 1097.76 147.671C1077.59 154.594 1052.68 154.467 1032.88 147.416C1028.3 145.462 1023.61 143.43 1018.84 141.32L1018.69 141.259C970.076 120.016 909.648 93.6134 855.135 128.59C854.844 128.764 854.591 128.962 854.375 129.178C854.207 129.253 854.042 129.338 853.883 129.433C822.328 148.114 774.955 167.408 728.666 152.731C717.573 148.802 707.323 143.534 696.452 137.947L695.892 137.659C676.884 127.832 657.112 117.692 632.595 115.095C607.313 113.19 574.662 125.063 543.257 136.482L543.232 136.491L542.94 136.597C506.239 149.89 468.239 163.653 444.017 155.057C434.23 151.053 425.07 146.765 416.19 142.607L415.254 142.168L415.212 142.149C391.246 130.836 368.611 120.152 337.597 117.292C297.725 111.535 268.724 124.394 240.694 136.821L240.579 136.872C230.295 141.453 219.626 146.186 208.388 150.067C188.218 156.991 163.301 156.863 143.509 149.812C138.921 147.858 134.239 145.826 129.46 143.717L129.319 143.655C90.7029 126.782 44.636 106.655 0 116.614V123.845C41.8735 113.354 85.6677 132.484 125.257 149.777L125.3 149.796C128.528 151.221 131.756 152.611 135.013 154.013L135.035 154.022L135.053 154.03L135.06 154.033L135.068 154.036C136.614 154.702 138.168 155.371 139.731 156.047C161.913 163.96 189.513 164.102 211.797 156.416C223.014 152.63 233.447 147.99 243.508 143.515L244.852 142.918L245.119 142.8C272.989 130.476 299.371 118.811 336.498 124.159C365.984 126.934 387.857 137.231 411.062 148.155L411.871 148.537C420.896 152.795 430.212 157.19 440.526 161.371C446.933 163.566 453.922 164.606 461.301 164.644C486.601 164.773 517.149 153.655 546.833 142.765L547.173 142.641C577.424 131.638 608.784 120.231 631.688 121.963C654.194 124.318 673.106 134.068 691.349 143.505L691.977 143.827C702.576 149.266 713.552 154.898 725.366 159.123C765.056 171.682 811.208 163.346 859.022 135.019C859.347 134.826 859.628 134.603 859.865 134.359C860.074 134.263 860.275 134.151 860.466 134.023C910.591 101.934 965.809 126.054 1014.63 147.381L1014.68 147.4C1017.92 148.831 1021.16 150.226 1024.43 151.635C1025.98 152.302 1027.54 152.973 1029.11 153.651C1051.29 161.564 1078.89 161.705 1101.17 154.02C1112.39 150.234 1122.82 145.594 1132.88 141.12L1134.23 140.521L1134.49 140.403C1162.36 128.08 1188.75 116.415 1225.87 121.762C1255.36 124.538 1277.23 134.835 1300.44 145.759L1300.47 145.774L1301.25 146.141C1310.27 150.398 1319.59 154.794 1329.9 158.975C1336.31 161.17 1343.3 162.21 1350.68 162.248C1375.98 162.377 1406.52 151.259 1436.21 140.369L1436.55 140.245C1437.7 139.827 1438.85 139.409 1440 138.99V131.413Z" fill="url(#paint2_linear_1_205)"/>
</g>
<defs>
<linearGradient id="paint0_linear_1_205" x1="1301.47" y1="149.396" x2="1301.98" y2="-18.6174" gradientUnits="userSpaceOnUse">
<stop offset="0.1312" stop-color="#005BA5"/>
<stop offset="0.3495" stop-color="#0071BA"/>
<stop offset="0.7749" stop-color="#0096DE"/>
<stop offset="1" stop-color="#00A4EC"/>
</linearGradient>
<linearGradient id="paint1_linear_1_205" x1="1301.47" y1="149.396" x2="1301.98" y2="-18.6174" gradientUnits="userSpaceOnUse">
<stop offset="0.1312" stop-color="#005BA5"/>
<stop offset="0.3495" stop-color="#0071BA"/>
<stop offset="0.7749" stop-color="#0096DE"/>
<stop offset="1" stop-color="#00A4EC"/>
</linearGradient>
<linearGradient id="paint2_linear_1_205" x1="1301.47" y1="149.396" x2="1301.98" y2="-18.6174" gradientUnits="userSpaceOnUse">
<stop offset="0.1312" stop-color="#005BA5"/>
<stop offset="0.3495" stop-color="#0071BA"/>
<stop offset="0.7749" stop-color="#0096DE"/>
<stop offset="1" stop-color="#00A4EC"/>
</linearGradient>
</defs>
</svg>
