<svg width="25" height="25" viewBox="0 0 25 25" fill="none" xmlns="http://www.w3.org/2000/svg">
<path fill-rule="evenodd" clip-rule="evenodd" d="M0.5 7.19686C0.5 3.4983 3.4983 0.5 7.19686 0.5H17.8032C21.5017 0.5 24.5001 3.4983 24.5 7.19686V17.8031C24.5 21.5017 21.5017 24.5 17.8031 24.5H7.19686C3.4983 24.5 0.5 21.5017 0.5 17.8031V7.19686ZM7.19686 1.5C4.05059 1.5 1.5 4.05059 1.5 7.19686V17.8031C1.5 20.9494 4.05059 23.5 7.19686 23.5H17.8031C20.9494 23.5 23.5 20.9494 23.5 17.8031V7.19685C23.5 4.05059 20.9495 1.5 17.8032 1.5H7.19686ZM12.5 8C9.73858 8 7.5 10.2386 7.5 13C7.5 15.7614 9.73858 18 12.5 18C15.2614 18 17.5 15.7614 17.5 13C17.5 10.2386 15.2614 8 12.5 8ZM6.5 13C6.5 9.68629 9.18629 7 12.5 7C15.8137 7 18.5 9.68629 18.5 13C18.5 16.3137 15.8137 19 12.5 19C9.18629 19 6.5 16.3137 6.5 13ZM20 6.5C20 7.05228 19.5523 7.5 19 7.5C18.4477 7.5 18 7.05228 18 6.5C18 5.94772 18.4477 5.5 19 5.5C19.5523 5.5 20 5.94772 20 6.5Z" fill="black"/>
</svg>
