<svg xmlns="http://www.w3.org/2000/svg" width="41" height="44" fill="none"><path fill="#0E0E0E" fill-rule="evenodd" d="M8.5 16.697A6.697 6.697 0 0 1 15.197 10h10.606a6.697 6.697 0 0 1 6.697 6.697v10.606A6.697 6.697 0 0 1 25.803 34H15.197A6.697 6.697 0 0 1 8.5 27.303V16.697ZM15.197 11A5.697 5.697 0 0 0 9.5 16.697v10.606A5.697 5.697 0 0 0 15.197 33h10.606a5.697 5.697 0 0 0 5.697-5.697V16.697A5.697 5.697 0 0 0 25.803 11H15.197Zm5.303 6.5a5 5 0 1 0 0 10 5 5 0 0 0 0-10Zm-6 5a6 6 0 1 1 12 0 6 6 0 0 1-12 0ZM28 16a1 1 0 1 1-2 0 1 1 0 0 1 2 0Z" clip-rule="evenodd"/></svg>