<svg width="25" height="23" viewBox="0 0 25 23" fill="none" xmlns="http://www.w3.org/2000/svg">
<path d="M24.0198 0.840447C23.8296 0.673436 23.598 0.56253 23.3501 0.519755C23.1023 0.47698 22.8476 0.50397 22.6138 0.597796L1.37593 9.07569C1.0983 9.18651 0.863456 9.3857 0.706531 9.64346C0.549607 9.90121 0.479044 10.2037 0.505403 10.5056C0.531762 10.8075 0.653625 11.0926 0.852757 11.3183C1.05189 11.5439 1.31758 11.698 1.61007 11.7574L7.37466 12.929V20.159C7.37178 20.4372 7.45161 20.7097 7.60371 20.941C7.75581 21.1723 7.97309 21.3516 8.2271 21.4553C8.39727 21.5277 8.57984 21.5652 8.76433 21.5657C8.9446 21.5651 9.12298 21.5282 9.28909 21.457C9.45521 21.3858 9.60576 21.2819 9.73201 21.1511L13.0227 17.8074L17.8781 22.149C18.1283 22.3748 18.4512 22.4996 18.7858 22.5C18.9313 22.4998 19.0759 22.4765 19.2142 22.4309C19.4424 22.3574 19.6477 22.2243 19.8095 22.045C19.9713 21.8657 20.084 21.6464 20.1363 21.409L24.4647 2.21721C24.5212 1.96832 24.5097 1.70845 24.4312 1.46577C24.3528 1.22309 24.2105 1.00684 24.0198 0.840447V0.840447ZM1.4224 10.4229C1.41095 10.3218 1.43337 10.2198 1.48604 10.1334C1.5387 10.0469 1.61853 9.98095 1.71262 9.94627L21.1804 2.17493L7.7282 12.0469L1.79061 10.8402C1.69198 10.8229 1.60198 10.7723 1.53517 10.6965C1.46835 10.6208 1.42862 10.5244 1.4224 10.4229ZM9.081 20.4897C9.01664 20.5551 8.93462 20.5997 8.84534 20.6177C8.75606 20.6358 8.66351 20.6265 8.5794 20.5911C8.4953 20.5557 8.42341 20.4958 8.37283 20.4189C8.32226 20.3419 8.29526 20.2515 8.29526 20.159V13.5802L12.3302 17.1882L9.081 20.4897ZM23.5674 2.00825L19.239 21.2001C19.2212 21.279 19.1835 21.352 19.1296 21.4117C19.0757 21.4714 19.0075 21.5159 18.9316 21.5407C18.8557 21.5656 18.7748 21.57 18.6967 21.5535C18.6186 21.537 18.5461 21.5002 18.4862 21.4467L8.57205 12.5816L23.493 1.63183C23.5323 1.68496 23.5593 1.74634 23.5722 1.81147C23.5851 1.87661 23.5834 1.94384 23.5674 2.00825V2.00825Z" fill="black"/>
</svg>
