<svg xmlns="http://www.w3.org/2000/svg" width="41" height="44" fill="none"><path fill="#0E0E0E" d="M32.02 11.34a1.367 1.367 0 0 0-1.406-.242L9.376 19.576c-.278.11-.513.31-.67.567a1.42 1.42 0 0 0 .147 1.675c.199.226.465.38.757.44l5.765 1.171v7.23c-.003.278.077.55.229.782.152.231.37.41.623.514a1.343 1.343 0 0 0 1.505-.304l3.29-3.344 4.856 4.342a1.357 1.357 0 0 0 1.336.282c.228-.074.434-.207.596-.386.161-.18.274-.399.326-.636l4.329-19.192a1.42 1.42 0 0 0-.445-1.377ZM9.422 20.923a.458.458 0 0 1 .29-.477l19.468-7.771-13.452 9.872-5.937-1.207a.442.442 0 0 1-.256-.143.456.456 0 0 1-.113-.274Zm7.659 10.067a.458.458 0 0 1-.786-.331V24.08l4.035 3.608-3.249 3.302Zm14.486-18.482L27.24 31.7a.47.47 0 0 1-.307.34.453.453 0 0 1-.446-.093l-9.914-8.865 14.921-10.95a.449.449 0 0 1 .074.376Z"/></svg>