<svg xmlns="http://www.w3.org/2000/svg" width="41" height="44" fill="none"><path fill="#0E0E0E" d="M20.5 10a12.003 12.003 0 0 0-10.426 17.944l-1.08 3.781a1.44 1.44 0 0 0 1.78 1.78l3.781-1.08a12.002 12.002 0 0 0 17.71-12.79A12 12 0 0 0 20.5 10Zm0 23.038a11.025 11.025 0 0 1-5.634-1.543.479.479 0 0 0-.377-.05l-3.98 1.137a.481.481 0 0 1-.593-.593l1.137-3.979a.478.478 0 0 0-.049-.377 11.04 11.04 0 0 1 14.957-15.23A11.041 11.041 0 0 1 20.5 33.038Zm6.061-8.814-2.455-1.403a1.442 1.442 0 0 0-1.455.016l-1.657.994a5.285 5.285 0 0 1-2.326-2.326l.994-1.657a1.442 1.442 0 0 0 .016-1.455l-1.403-2.455a1.309 1.309 0 0 0-1.135-.658 3.842 3.842 0 0 0-3.84 3.825A10.079 10.079 0 0 0 23.38 29.2h.014a3.84 3.84 0 0 0 3.826-3.84 1.309 1.309 0 0 0-.659-1.135Zm-3.168 4.015h-.013a9.121 9.121 0 0 1-9.12-9.133 2.88 2.88 0 0 1 2.88-2.866.35.35 0 0 1 .301.174l1.403 2.456a.48.48 0 0 1-.005.485l-1.127 1.877a.48.48 0 0 0-.026.444 6.245 6.245 0 0 0 3.137 3.137.48.48 0 0 0 .444-.026l1.878-1.127a.482.482 0 0 1 .485-.005l2.455 1.403a.348.348 0 0 1 .175.301 2.88 2.88 0 0 1-2.867 2.88Z"/></svg>