<svg width="25" height="25" viewBox="0 0 25 25" fill="none" xmlns="http://www.w3.org/2000/svg">
<path d="M12.5 0.5C10.3991 0.500544 8.33522 1.05244 6.51451 2.10053C4.6938 3.14863 3.18009 4.6562 2.12466 6.47258C1.06923 8.28896 0.509049 10.3505 0.500109 12.4512C0.491168 14.5519 1.03378 16.6182 2.07371 18.4435L0.993186 22.2252C0.92265 22.4721 0.919427 22.7334 0.983851 22.9819C1.04827 23.2305 1.178 23.4573 1.35959 23.6389C1.54118 23.8204 1.76802 23.9502 2.0166 24.0146C2.26519 24.079 2.52647 24.0757 2.77339 24.0052L6.55538 22.9248C8.1521 23.835 9.93657 24.3664 11.7712 24.4779C13.6058 24.5894 15.4415 24.278 17.1367 23.5678C18.8319 22.8576 20.3413 21.7675 21.5485 20.3817C22.7557 18.9958 23.6284 17.3512 24.0994 15.5747C24.5703 13.7982 24.6269 11.9373 24.2647 10.1354C23.9025 8.33359 23.1313 6.63902 22.0105 5.18241C20.8897 3.7258 19.4493 2.54608 17.8003 1.73424C16.1514 0.922394 14.338 0.500125 12.5 0.5V0.5ZM12.5 23.5384C10.5172 23.5398 8.57077 23.0064 6.86569 21.9945C6.80948 21.961 6.74701 21.9394 6.68214 21.931C6.61727 21.9226 6.55135 21.9275 6.48846 21.9455L2.50959 23.0823C2.42728 23.1058 2.34019 23.1068 2.25733 23.0854C2.17447 23.0639 2.09886 23.0206 2.03833 22.9601C1.97781 22.8996 1.93458 22.824 1.91312 22.7411C1.89165 22.6582 1.89274 22.5712 1.91627 22.4889L3.05299 18.5104C3.07095 18.4475 3.07587 18.3816 3.06745 18.3167C3.05903 18.2519 3.03744 18.1894 3.00401 18.1332C1.76052 16.0384 1.24482 13.5911 1.53725 11.1727C1.82967 8.75423 2.9138 6.5004 4.62075 4.76228C6.32769 3.02416 8.56161 1.89934 10.9745 1.56305C13.3874 1.22677 15.8438 1.69789 17.961 2.90304C20.0782 4.10818 21.7373 5.97968 22.68 8.22599C23.6226 10.4723 23.7958 12.9673 23.1726 15.3223C22.5494 17.6773 21.1647 19.76 19.2343 21.2461C17.3039 22.7322 14.9362 23.5382 12.5 23.5384V23.5384ZM18.5614 14.7242L16.1062 13.3213C15.8841 13.1946 15.6322 13.1292 15.3765 13.1319C15.1207 13.1346 14.8703 13.2053 14.6509 13.3368L12.9941 14.3308C11.9912 13.8227 11.1764 13.008 10.6682 12.005L11.6623 10.3484C11.7937 10.129 11.8645 9.8786 11.8672 9.62288C11.8699 9.36717 11.8045 9.11533 11.6778 8.89322L10.2748 6.43818C10.1603 6.23832 9.99506 6.0722 9.7958 5.95657C9.59655 5.84095 9.37032 5.77992 9.13994 5.77964C8.12406 5.77989 7.14965 6.18255 6.42998 6.8995C5.7103 7.61645 5.30398 8.58928 5.29994 9.60509C5.29808 10.9299 5.55743 12.2421 6.06315 13.4666C6.56888 14.6911 7.31106 15.8039 8.24724 16.7414C9.18343 17.6789 10.2953 18.4226 11.5191 18.93C12.743 19.4375 14.0549 19.6987 15.3798 19.6987H15.3942C16.4101 19.6947 17.383 19.2884 18.1 18.5687C18.817 17.8491 19.2197 16.8748 19.2199 15.859C19.2197 15.6286 19.1587 15.4024 19.043 15.2032C18.9274 15.0039 18.7612 14.8387 18.5614 14.7242V14.7242ZM15.3929 18.7388H15.3799C14.1811 18.7388 12.9942 18.5025 11.8868 18.0434C10.7795 17.5843 9.77357 16.9114 8.92654 16.0632C8.07951 15.215 7.40801 14.2082 6.95045 13.1003C6.49289 11.9924 6.25825 10.8051 6.25994 9.60649C6.26326 8.84493 6.56816 8.11569 7.10792 7.57839C7.64767 7.04108 8.37832 6.73947 9.13994 6.73958C9.20112 6.73965 9.26119 6.75586 9.31411 6.78655C9.36703 6.81724 9.41091 6.86134 9.44135 6.91441L10.8443 9.36956C10.8865 9.44359 10.9083 9.52753 10.9074 9.61276C10.9065 9.69799 10.8829 9.78145 10.8391 9.85457L9.7124 11.7323C9.67256 11.7986 9.64937 11.8736 9.64481 11.9509C9.64025 12.0282 9.65446 12.1054 9.68621 12.176C10.3127 13.5703 11.4288 14.6863 12.8232 15.3128C12.8938 15.3446 12.9711 15.3588 13.0484 15.3542C13.1256 15.3496 13.2007 15.3264 13.2671 15.2865L15.1447 14.16C15.2179 14.1162 15.3014 14.0926 15.3866 14.0916C15.4719 14.0907 15.5558 14.1125 15.6299 14.1547L18.0852 15.5577C18.1382 15.5881 18.1823 15.632 18.213 15.6849C18.2437 15.7378 18.2599 15.7978 18.2599 15.859C18.26 16.6205 17.9584 17.3511 17.4211 17.8908C16.8838 18.4305 16.1545 18.7354 15.3929 18.7388V18.7388Z" fill="black"/>
</svg>
